<svg xmlns="http://www.w3.org/2000/svg" xmlns:xlink="http://www.w3.org/1999/xlink" viewBox="0 0 810 1311" enable-background="new 0 0 810 1311"><defs><path id="a" d="M-1544.4 261.9h2381v1049h-2381z"/></defs><clipPath><use xlink:href="#a" overflow="visible"/></clipPath><g><defs><path id="b" d="M0 0h810v1311h-810z"/></defs><clipPath id="c"><use xlink:href="#b" overflow="visible"/></clipPath><g clip-path="url(#c)"><g fill="#D13239"><path d="M281.2 806.4c119.7-6.5 234.8-23.7 355.2-18.2 59 2.7 120 6.5 178.1-6.5 25.2-5.6 49.8-14.9 71-29.9 53.3-37.7 63.9-132.6 71.2-191.5 4.9-39.8 22.9-113-15.5-139.7-37.7-26.2-159.1-44.7-208.8-31.7-35.7 9.3-66.3 39-97.9 56.4-100.9 55.4-208.1 98.7-307.2 157.4-44 26.1-89.6 56.2-121.5 97-11.3 14.4-48 74.8-29.9 101.5 7 4 17.3 4.9 25.1 5.6 26.6 2.2 53.7 1 80.2-.4zM1099.5 848.9c-23.3-67-234.3-64-296.2-49-41.3 10-75.1 43.9-110.5 65.4-91 55.3-186.9 105.4-269.8 172.7-14.8 12-123.1 140.1-107 166.8 11.7 2.5 18.6 5.7 45.4 6.5 105.6 3 209.4-21 314.5-25.2 89.8-3.6 182.6 8.2 271.3-10.8 101.2-21.6 133.8-99 148.2-197.2 5.3-35.2 16-94.8 4.1-129.2-.4-1 1.7 4.8 0 0z"/></g><path fill-rule="evenodd" clip-rule="evenodd" fill="#FF5959" d="M692 173.3c-171.5 121.3-463.1 257.7-626 314.4l-.3.1c16.2 46.7 73.1 210.4 108 311 .3.9 1 1.7 2.1 2.5 111.2-39 442.2-194.3 629.4-323.2 36.1-24.9 70.4-50 93.7-72 21.4-20.2 33.6-37.9 29.2-50.4-35.7-102.7-94.3-271.4-109-313.9 10.3 29.5-57.7 82.5-127.1 131.5zM832.2 576.9c-102.6 72.6-248.2 150.5-383.5 213.6-90.9 42.3-177.1 78-242.6 100.7l-.3.1c16.2 46.7 73.1 210.4 108 311 .3.9 1 1.7 2.1 2.5 111.2-38.9 442.1-194.2 629.3-323.2 36.1-24.9 70.4-50 93.7-72 21.4-20.2 33.6-37.9 29.2-50.4-8.1-23.2-17.3-49.9-27-77.6-24.9-71.8-63.2-181.9-82.1-236.2 10.6 29.5-57.4 82.4-126.8 131.5zM972.4 980.5c-102.6 72.5-248.2 150.5-383.5 213.5-91 42.4-177.3 78.1-242.9 100.8 18.5 53.3 83.7 240.8 109 313.9 110.1-38.2 442.6-194.2 630.5-323.6 69.2-47.7 132-96.3 123-122.4-8.1-23.2-17.3-49.9-27-77.6-24.9-71.8-63.2-181.9-82.1-236.2 10.4 29.6-57.6 82.5-127 131.6z"/></g></g></svg>